<?xml version="1.0" encoding="UTF-8" standalone="no"?>
<svg
   width="64"
   height="64"
   viewBox="0 0 64 64"
   fill="none"
   version="1.1"
   id="svg14"
   sodipodi:docname="icon.svg"
   inkscape:version="1.2 (dc2aedaf03, 2022-05-15)"
   xmlns:inkscape="http://www.inkscape.org/namespaces/inkscape"
   xmlns:sodipodi="http://sodipodi.sourceforge.net/DTD/sodipodi-0.dtd"
   xmlns="http://www.w3.org/2000/svg"
   xmlns:svg="http://www.w3.org/2000/svg">
  <defs
     id="defs18" />
  <sodipodi:namedview
     id="namedview16"
     pagecolor="#ffffff"
     bordercolor="#666666"
     borderopacity="1.0"
     inkscape:showpageshadow="2"
     inkscape:pageopacity="0.0"
     inkscape:pagecheckerboard="0"
     inkscape:deskcolor="#d1d1d1"
     showgrid="false"
     inkscape:zoom="15.03125"
     inkscape:cx="27.70894"
     inkscape:cy="32.033264"
     inkscape:window-width="1920"
     inkscape:window-height="1051"
     inkscape:window-x="-9"
     inkscape:window-y="-9"
     inkscape:window-maximized="1"
     inkscape:current-layer="svg14" />
  <path
     d="M43.48 5.16C42.0877 3.77392 40.2026 2.99658 38.238 2.99845C36.2734 3.00033 34.3897 3.78127 33 5.17C32.7221 5.43012 32.3557 5.57484 31.975 5.57484C31.5944 5.57484 31.228 5.43012 30.95 5.17C30.2645 4.48274 29.4501 3.93747 28.5535 3.56543C27.6569 3.19339 26.6958 3.00189 25.725 3.00189C24.7543 3.00189 23.7931 3.19339 22.8966 3.56543C22 3.93747 21.1856 4.48274 20.5 5.17C19.1169 6.55715 18.3402 8.43612 18.3402 10.395C18.3402 12.3539 19.1169 14.2329 20.5 15.62L31.29 26.39C31.3835 26.4827 31.4943 26.556 31.6161 26.6058C31.738 26.6555 31.8684 26.6808 32 26.68C32.1316 26.6808 32.2621 26.6555 32.3839 26.6058C32.5058 26.556 32.6166 26.4827 32.71 26.39L43.48 15.62C44.8638 14.2311 45.6407 12.3505 45.6407 10.39C45.6407 8.42948 44.8638 6.54885 43.48 5.16V5.16Z"
     fill="#ED0677"
     id="path2"
     style="fill:#9daf89;fill-opacity:1" />
  <path
     d="M14.21 23.29C13.5163 23.29 12.8293 23.427 12.1886 23.6931C11.5479 23.9592 10.9661 24.3491 10.4765 24.8406C9.98684 25.3321 9.59907 25.9154 9.33541 26.5571C9.07175 27.1988 8.93738 27.8863 8.94001 28.58C8.94611 28.6665 8.9334 28.7533 8.90274 28.8343C8.87209 28.9154 8.82423 28.9889 8.76246 29.0498C8.70068 29.1106 8.62646 29.1573 8.5449 29.1867C8.46334 29.2161 8.37638 29.2274 8.29001 29.22C6.88967 29.22 5.54668 29.7763 4.55649 30.7665C3.56629 31.7567 3.01001 33.0997 3.01001 34.5C3.01001 35.9003 3.56629 37.2433 4.55649 38.2335C5.54668 39.2237 6.88967 39.78 8.29001 39.78H13.45C13.6723 39.7744 13.8863 39.6948 14.0583 39.554C14.2303 39.4131 14.3504 39.2189 14.3998 39.0022C14.4491 38.7854 14.4248 38.5584 14.3306 38.3569C14.2365 38.1555 14.0779 37.9912 13.88 37.89L17.69 34.27C17.7776 34.4066 17.8971 34.5199 18.0382 34.6001C18.1793 34.6802 18.3378 34.7248 18.5 34.73C18.7652 34.73 19.0196 34.6246 19.2071 34.4371C19.3947 34.2496 19.5 33.9952 19.5 33.73V28.58C19.5 27.177 18.9427 25.8315 17.9506 24.8394C16.9585 23.8473 15.613 23.29 14.21 23.29V23.29Z"
     fill="#ED0677"
     id="path4"
     style="fill:#9daf89;fill-opacity:1" />
  <path
     d="M59.45 30.76C58.9614 30.2716 58.3814 29.8842 57.7432 29.62C57.1049 29.3558 56.4208 29.2198 55.73 29.22C55.5623 29.2107 55.4038 29.1406 55.2841 29.0227C55.1645 28.9049 55.0919 28.7475 55.08 28.58C55.0826 27.1814 54.5303 25.8389 53.5441 24.8471C52.558 23.8553 51.2186 23.2953 49.82 23.29V23.29C48.4205 23.2953 47.0801 23.855 46.0923 24.8465C45.1046 25.838 44.55 27.1805 44.55 28.58V33.73C44.5535 33.9048 44.6028 34.0756 44.6929 34.2254C44.783 34.3753 44.9109 34.4988 45.0637 34.5838C45.2164 34.6688 45.3888 34.7123 45.5637 34.7099C45.7385 34.7074 45.9096 34.6592 46.06 34.57L49.82 38.18C49.7095 38.3272 49.6418 38.5021 49.6244 38.6853C49.6069 38.8685 49.6403 39.053 49.721 39.2184C49.8016 39.3838 49.9264 39.5238 50.0815 39.6229C50.2365 39.722 50.416 39.7763 50.6 39.78H55.75C56.4416 39.7787 57.1261 39.641 57.7645 39.3748C58.4028 39.1087 58.9824 38.7192 59.47 38.2288C59.9576 37.7384 60.3438 37.1566 60.6063 36.5167C60.8688 35.8769 61.0026 35.1916 61 34.5C61.0015 33.8051 60.8653 33.1168 60.5992 32.4749C60.3332 31.833 59.9426 31.2501 59.45 30.76V30.76Z"
     fill="#ED0677"
     id="path6"
     style="fill:#9daf89;fill-opacity:1" />
  <path
     d="M51.43 38.27C50.7733 37.1743 49.9803 36.1662 49.07 35.27C48.171 34.36 47.1634 33.564 46.07 32.9C43.9557 31.6857 41.5812 30.9958 39.1454 30.8879C36.7096 30.78 34.2834 31.2574 32.07 32.28C29.7702 31.2005 27.2352 30.7191 24.6998 30.8805C22.1644 31.0418 19.7108 31.8407 17.5664 33.203C15.422 34.5653 13.6563 36.4469 12.4329 38.6735C11.2095 40.9001 10.5681 43.3995 10.5681 45.94C10.5681 48.4805 11.2095 50.9799 12.4329 53.2065C13.6563 55.4331 15.422 57.3147 17.5664 58.677C19.7108 60.0393 22.1644 60.8382 24.6998 60.9995C27.2352 61.1609 29.7702 60.6795 32.07 59.6C34.9874 60.9525 38.2606 61.3376 41.4123 60.6993C44.564 60.061 47.4293 58.4325 49.5905 56.0514C51.7517 53.6703 53.0958 50.661 53.4267 47.4624C53.7576 44.2638 53.058 41.0431 51.43 38.27V38.27ZM16.34 55.16C14.5071 53.3283 13.2585 50.9941 12.7524 48.4527C12.2462 45.9113 12.5051 43.2769 13.4964 40.8827C14.4876 38.4885 16.1667 36.442 18.3211 35.0022C20.4756 33.5623 23.0087 32.7938 25.6 32.7938C28.1913 32.7938 30.7244 33.5623 32.8789 35.0022C35.0334 36.442 36.7124 38.4885 37.7037 40.8827C38.6949 43.2769 38.9538 45.9113 38.4477 48.4527C37.9415 50.9941 36.693 53.3283 34.86 55.16C32.4035 57.6148 29.0728 58.9938 25.6 58.9938C22.1272 58.9938 18.7965 57.6148 16.34 55.16V55.16ZM47.66 55.16C45.9332 56.8909 43.7555 58.1027 41.3744 58.6578C38.9933 59.2129 36.5042 59.0889 34.19 58.3C34.936 57.7857 35.6354 57.2068 36.28 56.57C39.1031 53.7345 40.688 49.8962 40.688 45.895C40.688 41.8938 39.1031 38.0555 36.28 35.22C35.64 34.5891 34.9475 34.0137 34.21 33.5C35.9832 32.9072 37.862 32.6978 39.7221 32.8857C41.5823 33.0736 43.3813 33.6545 45 34.59C45.9658 35.1635 46.856 35.8555 47.65 36.65C48.8667 37.8657 49.8319 39.3092 50.4905 40.8981C51.149 42.487 51.488 44.1901 51.488 45.91C51.488 47.63 51.149 49.333 50.4905 50.9219C49.8319 52.5108 48.8667 53.9543 47.65 55.17L47.66 55.16Z"
     fill="#F067A6"
     id="path8"
     style="fill:#9daf89;fill-opacity:1" />
  <path
     d="M59.45 30.76C58.9615 30.2716 58.3815 29.8842 57.7432 29.62C57.1049 29.3558 56.4208 29.2198 55.73 29.22C55.5624 29.2107 55.4038 29.1406 55.2842 29.0227C55.1645 28.9049 55.0919 28.7475 55.08 28.58C55.0827 27.1814 54.5303 25.8389 53.5442 24.8471C52.558 23.8553 51.2186 23.2953 49.82 23.29V23.29C48.4205 23.2953 47.0801 23.855 46.0923 24.8465C45.1046 25.838 44.55 27.1805 44.55 28.58V32.1C42.5673 31.2341 40.4234 30.7988 38.26 30.823C36.0966 30.8471 33.9629 31.3301 32 32.24C30.0432 31.3316 27.9152 30.851 25.758 30.8303C23.6007 30.8097 21.4639 31.2493 19.49 32.12V28.58C19.49 27.1805 18.9354 25.838 17.9477 24.8465C16.9599 23.855 15.6195 23.2953 14.22 23.29V23.29C13.5263 23.29 12.8393 23.427 12.1986 23.6931C11.558 23.9592 10.9761 24.3491 10.4865 24.8406C9.99685 25.3321 9.60908 25.9154 9.34542 26.5571C9.08176 27.1988 8.94739 27.8863 8.95002 28.58C8.95612 28.6665 8.94341 28.7533 8.91275 28.8343C8.8821 28.9154 8.83424 28.9889 8.77247 29.0498C8.71069 29.1106 8.63647 29.1573 8.55491 29.1867C8.47335 29.2161 8.38639 29.2274 8.30002 29.22C6.89968 29.22 5.55669 29.7763 4.5665 30.7665C3.5763 31.7567 3.02002 33.0997 3.02002 34.5C3.02002 35.9003 3.5763 37.2433 4.5665 38.2335C5.55669 39.2237 6.89968 39.78 8.30002 39.78H11.85C10.607 42.5859 10.2497 45.7042 10.8258 48.7185C11.4018 51.7328 12.8838 54.4996 15.0738 56.6494C17.2638 58.7992 20.0576 60.2296 23.0821 60.7497C26.1065 61.2698 29.2177 60.8548 32 59.56C34.7839 60.868 37.9011 61.2934 40.9336 60.7793C43.9661 60.2651 46.7689 58.8359 48.966 56.6834C51.1632 54.5309 52.6495 51.7581 53.2258 48.7367C53.802 45.7154 53.4406 42.5901 52.19 39.78H55.72C56.4141 39.7826 57.1019 39.6479 57.7437 39.3835C58.3855 39.1191 58.9686 38.7302 59.4594 38.2394C59.9503 37.7486 60.3391 37.1655 60.6035 36.5237C60.8679 35.8819 61.0027 35.1941 61 34.5C61.0015 33.8051 60.8653 33.1168 60.5993 32.4749C60.3332 31.833 59.9426 31.2501 59.45 30.76V30.76ZM8.28002 37.76C7.41011 37.76 6.57583 37.4144 5.96071 36.7993C5.34559 36.1842 5.00002 35.3499 5.00002 34.48C5.00002 33.6101 5.34559 32.7758 5.96071 32.1607C6.57583 31.5456 7.41011 31.2 8.28002 31.2V31.2C8.97938 31.1974 9.64935 30.9184 10.1439 30.4239C10.6384 29.9293 10.9174 29.2594 10.92 28.56C10.92 27.6909 11.2639 26.8571 11.8766 26.2407C12.4892 25.6242 13.3209 25.2753 14.19 25.27V25.27C15.06 25.2753 15.8928 25.6239 16.507 26.24C17.1213 26.8562 17.4674 27.69 17.47 28.56V33.16C15.6215 34.3419 14.0519 35.9115 12.87 37.76H8.28002ZM16.34 55.14C14.5071 53.3083 13.2586 50.9741 12.7524 48.4327C12.2462 45.8913 12.5051 43.2569 13.4964 40.8627C14.4876 38.4685 16.1667 36.422 18.3211 34.9822C20.4756 33.5423 23.0087 32.7738 25.6 32.7738C28.1913 32.7738 30.7244 33.5423 32.8789 34.9822C35.0334 36.422 36.7124 38.4685 37.7037 40.8627C38.6949 43.2569 38.9538 45.8913 38.4477 48.4327C37.9415 50.9741 36.693 53.3083 34.86 55.14C32.4062 57.5975 29.077 58.9801 25.6042 58.9838C22.1313 58.9876 18.7991 57.6122 16.34 55.16V55.14ZM47.66 55.14C45.9332 56.8709 43.7555 58.0827 41.3744 58.6378C38.9933 59.1929 36.5042 59.0689 34.19 58.28C34.936 57.7657 35.6354 57.1868 36.28 56.55C39.1031 53.7145 40.688 49.8762 40.688 45.875C40.688 41.8738 39.1031 38.0355 36.28 35.2C35.64 34.5691 34.9475 33.9937 34.21 33.48C35.9845 32.8902 37.8641 32.6841 39.7243 32.8755C41.5845 33.0668 43.3827 33.6513 45 34.59C45.9658 35.1635 46.856 35.8555 47.65 36.65C48.8667 37.8657 49.8319 39.3092 50.4905 40.8981C51.149 42.487 51.488 44.1901 51.488 45.91C51.488 47.6299 51.149 49.333 50.4905 50.9219C49.8319 52.5108 48.8667 53.9543 47.65 55.17L47.66 55.14ZM58 36.82C57.6996 37.1331 57.3396 37.3829 56.9412 37.5547C56.5427 37.7264 56.1139 37.8166 55.68 37.82H51.1C49.9396 35.9664 48.3736 34.4004 46.52 33.24V28.58C46.5226 27.71 46.8687 26.8762 47.483 26.26C48.0973 25.6439 48.93 25.2953 49.8 25.29V25.29C50.6691 25.2953 51.5008 25.6442 52.1135 26.2607C52.7262 26.8771 53.07 27.7109 53.07 28.58C53.0727 29.2811 53.353 29.9526 53.8497 30.4474C54.3464 30.9422 55.0189 31.22 55.72 31.22V31.22C56.3655 31.2276 56.9945 31.4254 57.528 31.7888C58.0616 32.1522 58.4761 32.665 58.7195 33.2629C58.9629 33.8608 59.0245 34.5173 58.8965 35.15C58.7685 35.7828 58.4567 36.3637 58 36.82V36.82Z"
     fill="black"
     id="path10"
     style="fill:#9daf89;fill-opacity:1" />
  <path
     d="M31.29 26.39C31.383 26.4837 31.4936 26.5581 31.6155 26.6089C31.7373 26.6597 31.868 26.6858 32 26.6858C32.1321 26.6858 32.2628 26.6597 32.3846 26.6089C32.5065 26.5581 32.6171 26.4837 32.71 26.39L43.48 15.62C44.8658 14.2303 45.6427 12.347 45.6399 10.3844C45.6371 8.42183 44.8548 6.54076 43.465 5.155C42.0753 3.76924 40.192 2.99231 38.2294 2.99513C36.2669 2.99794 34.3858 3.78027 33 5.17C32.7221 5.43012 32.3557 5.57484 31.975 5.57484C31.5944 5.57484 31.228 5.43012 30.95 5.17C30.2645 4.48274 29.4501 3.93747 28.5535 3.56543C27.6569 3.19339 26.6958 3.00189 25.725 3.00189C24.7543 3.00189 23.7931 3.19339 22.8966 3.56543C22 3.93747 21.1856 4.48274 20.5 5.17C19.1169 6.55715 18.3402 8.43612 18.3402 10.395C18.3402 12.3539 19.1169 14.2329 20.5 15.62L31.29 26.39ZM21.93 6.58C22.9425 5.56937 24.3145 5.00175 25.745 5.00175C27.1756 5.00175 28.5476 5.56937 29.56 6.58C30.2181 7.20608 31.0917 7.55524 32 7.55524C32.9084 7.55524 33.7819 7.20608 34.44 6.58C35.1938 5.82672 36.154 5.31379 37.1992 5.10603C38.2444 4.89828 39.3278 5.00501 40.3123 5.41275C41.2969 5.82049 42.1385 6.51094 42.7308 7.39684C43.3231 8.28274 43.6395 9.32434 43.64 10.39C43.643 11.0982 43.5048 11.7999 43.2335 12.454C42.9622 13.1082 42.5633 13.7017 42.06 14.2L32 24.27L21.93 14.2C20.9249 13.1867 20.3609 11.8173 20.3609 10.39C20.3609 8.96273 20.9249 7.59329 21.93 6.58V6.58Z"
     fill="black"
     id="path12"
     style="fill:#9daf89;fill-opacity:1" />
</svg>
